<svg id="Layer_1" data-name="Layer 1" xmlns="http://www.w3.org/2000/svg" viewBox="0 0 61.44 61.44"><defs><style>.cls-1{fill:#115483;}.cls-2{fill:#fefefe;}.cls-3{fill:#fbfcfc;}.cls-4{fill:#fafbfc;}</style></defs><path class="cls-1" d="M990.44,509.24v61.2h-61.2v-61.2Zm-42,53.87v-1.52c0-3.5.05-7,0-10.51a4.39,4.39,0,0,1,1.36-3.4q14.18-14.62,28.3-29.29l1.78-1.89h-1.48c-2.86,0-5.73,0-8.59-.06a4.39,4.39,0,0,0-3.68,1.55q-8.19,8.93-16.46,17.8c-.3.31-.63.59-1.21,1.13V516.65H939v46.46Zm32.53,0-16-25.29c-2.05,2-4,3.86-6,5.69a1.5,1.5,0,0,0-.28,2.17q4.72,8.16,9.35,16.37a2.12,2.12,0,0,0,2.11,1.22c3.1,0,6.21,0,9.31,0C979.91,563.22,980.34,563.16,980.94,563.1Z" transform="translate(-929 -509)"/><path class="cls-2" d="M990.44,509.24h-61.2v61.2a5.21,5.21,0,0,1-.23-1.08q0-30.18,0-60.36h60.36A5.21,5.21,0,0,1,990.44,509.24Z" transform="translate(-929 -509)"/><path class="cls-3" d="M948.41,563.11H939V516.65h9.42v20.27c.58-.54.91-.82,1.21-1.13q8.25-8.89,16.46-17.8a4.39,4.39,0,0,1,3.68-1.55c2.86.11,5.73,0,8.59.06h1.48l-1.78,1.89q-14.14,14.64-28.3,29.29a4.39,4.39,0,0,0-1.36,3.4c.07,3.5,0,7,0,10.51Z" transform="translate(-929 -509)"/><path class="cls-4" d="M980.94,563.1c-.6.06-1,.12-1.45.12-3.1,0-6.21,0-9.31,0a2.12,2.12,0,0,1-2.11-1.22q-4.62-8.2-9.35-16.37a1.5,1.5,0,0,1,.28-2.17c2-1.83,3.93-3.73,6-5.69Z" transform="translate(-929 -509)"/></svg>