<svg id="Layer_1" data-name="Layer 1" xmlns="http://www.w3.org/2000/svg" viewBox="0 0 2516.49 878.56"><defs><style>.cls-1{fill:#115584;}.cls-2{fill:#105483;}.cls-3{fill:#125584;}.cls-4{fill:#125684;}.cls-5{fill:#115483;}.cls-6{fill:#115583;}.cls-7{fill:#135685;}</style></defs><path class="cls-1" d="M2200.25,389.59c-2,.33-3.06-.83-4.25-1.48-10.42-5.61-20.72-11.42-31.23-16.85-26.28-13.59-53.38-25.4-80.75-36.61-34-13.94-68.23-27.33-102.82-39.74q-57.35-20.58-116.37-35.63c-30.95-7.94-62-15.26-93.22-22.31q-38.58-8.72-77.48-15.84c-17.91-3.27-35.89-6.24-53.89-9.08-18.46-2.93-37-5.62-55.48-8.27-15.18-2.17-30.4-4.15-45.61-6.18-15.84-2.12-31.67-4.28-47.53-6.29-12-1.52-24.12-2.85-36.19-4.21q-15.72-1.78-31.46-3.43c-8.11-.83-16.23-1.52-24.35-2.3-8.43-.82-16.85-1.7-25.28-2.49-8.12-.76-16.24-1.46-24.36-2.15q-15.76-1.36-31.53-2.67c-8.6-.72-17.2-1.44-25.81-2.11a71.51,71.51,0,0,0-25.58,2.73Q1151,208,1034.82,241.14,921.47,273.56,808.1,306q-96.33,27.49-192.67,54.93c-2.28.65-4.53,1.44-7,2.24v81.73c0,8.93,0,17.86,0,26.39a7.46,7.46,0,0,1-.73.72.86.86,0,0,1-.43.15l-165.55.14h-3.06c-1.53-1.38-1.15-2.94-1.21-4.29-.32-7.83-.6-15.66-.75-23.49-.17-8.8-.2-17.6-.27-26.39-.11-13.76-.32-27.51-.26-41.27.05-13.59.39-27.18.62-40.77,0-.79.11-1.58.19-2.7,1.31-.45,2.61-1,4-1.35q48.63-13.85,97.26-27.67,85.07-24.15,170.14-48.3l279.85-79.49q22.13-6.28,44.26-12.57c1.33-.38,2.61-.92,3.75-1.33.25-1.22-.46-1.47-1-1.55a45.64,45.64,0,0,0-6.16-.65c-23-.11-46.06-.23-69.1-.23s-46.06.05-69.09.24c-12.62.1-25.25.52-37.88.82-17.58.41-35.16.79-52.74,1.28-13.43.38-26.84.92-40.26,1.39-14.22.49-28.44.87-42.66,1.5s-28.72,1.49-43.08,2.29c-6.7.38-13.4.78-20.1,1.27-11.16.81-22.31,1.69-33.46,2.54q-7.17.56-14.34,1.09c-14.83,1.09-29.66,2.12-44.47,3.27-15.46,1.21-30.91,2.45-46.35,3.84-16.56,1.49-33.11,3.05-49.63,4.82-18.44,2-36.85,4.11-55.26,6.33-18.88,2.27-37.76,4.58-56.61,7.11-26.46,3.54-52.87,7.37-79.15,12-33,5.87-66.1,11.58-99.1,17.67q-67.89,12.53-134.81,29.6Q-20,272.88-79.74,292.15c-33.15,10.7-66,22.24-98.36,35.18-41.28,16.52-81.74,34.81-120.76,56.2-4.21,2.31-8.46,4.53-12.72,6.73-.93.48-1.79,1.37-3.24.92.82-1.66,2.29-2.6,3.55-3.69a493.31,493.31,0,0,1,41.77-32.23c27-18.71,55.44-34.92,84.63-49.91C-133.6,279-80.42,257.18-26.1,238.05c50.21-17.69,101.15-33,152.69-46.27,31.56-8.14,63.26-15.75,95.13-22.54,23-4.89,46-9.43,69.1-13.8q31.32-5.94,62.77-11.15c19.23-3.23,38.51-6.18,57.79-9.06q22.75-3.4,45.58-6.33c12.05-1.56,24.14-2.8,36.2-4.2,9.69-1.12,19.37-2.29,29.05-3.39,7.15-.81,14.31-1.54,21.46-2.29,7.94-.85,15.89-1.72,23.84-2.51,8.11-.8,16.23-1.52,24.35-2.26,9.71-.87,19.42-1.75,29.13-2.57,9.08-.76,18.16-1.46,27.24-2.16q17.44-1.35,34.9-2.66c5.1-.38,10.2-.71,15.31-1,12.92-.79,25.84-1.6,38.77-2.31q20.1-1.11,40.22-2,11.75-.57,23.48-1c11.66-.37,23.33-.72,35-1,17.42-.37,34.85-.77,52.27-.94,32-.29,64-.54,96-.58,16.14,0,32.29.47,48.44.72,8,.13,16,.18,24,.41,12.62.37,25.24.89,37.86,1.31,5.91.2,11.83.23,17.74.5q26.35,1.18,52.68,2.51c14.21.72,28.42,1.42,42.61,2.34,15.31,1,30.6,2.22,45.9,3.37,9.72.73,19.45,1.44,29.16,2.29,12.26,1.08,24.51,2.28,36.76,3.43,8,.75,15.92,1.44,23.87,2.26q14.77,1.54,29.55,3.26c9.36,1.08,18.72,2.26,28.07,3.43q13.34,1.65,26.64,3.38c8.4,1.08,16.8,2.15,25.2,3.27,10.46,1.39,20.92,2.74,31.36,4.24q17.55,2.53,35.08,5.31c12.63,2,25.26,4,37.86,6.11q20.32,3.48,40.57,7.32c17.42,3.34,34.83,6.72,52.19,10.35,26,5.43,51.91,10.92,77.79,16.71,47.11,10.54,93.74,22.85,139.81,37.31a1167.86,1167.86,0,0,1,160.14,63.87c26.75,13,53.33,26.3,79.22,40.94a614.37,614.37,0,0,1,83.12,55.85,60.32,60.32,0,0,1,9.3,9A17,17,0,0,1,2200.25,389.59Z" transform="translate(314.82 -98.04)"/><path class="cls-2" d="M-310.7,976.14c-.69-4.14-.75-48.53-.16-53.11a2.58,2.58,0,0,1,.36-.31.88.88,0,0,1,.44-.14q1254.88,0,2509.79-.07a6.27,6.27,0,0,1,1.29.26,5.35,5.35,0,0,1,.38.43.91.91,0,0,1,.18.42q.06,25,.09,49.91a18.06,18.06,0,0,1-.26,2.1,13.19,13.19,0,0,1-2.64.73q-4.56.23-9.11.23-552.58,0-1105.18,0-348.87,0-697.75-.07-345.27,0-690.55-.13A39.45,39.45,0,0,1-310.7,976.14Z" transform="translate(314.82 -98.04)"/><path class="cls-1" d="M410.46,859.29c-25,.13-48.91-4.69-71.62-15.26-32.06-14.91-54.71-38.83-68.26-71.4a207.44,207.44,0,0,1-15-86.72c1.38-26.13,6.92-51.29,18-75,12.17-26,30.46-46.36,55.73-60.24a158.33,158.33,0,0,1,44.51-15.94A193.29,193.29,0,0,1,426.77,531c22.22,1.54,43.57,6.71,63.63,16.56,25.69,12.61,44.91,31.93,58.3,57.12a164,164,0,0,1,17.69,53.94A230.18,230.18,0,0,1,568.86,704c-1,18.73-3.48,37.23-9.25,55.17-8.41,26.17-22.45,48.68-43.62,66.46-18.28,15.34-39.34,24.91-62.63,29.6A224.48,224.48,0,0,1,410.46,859.29Zm90.87-163.68a182,182,0,0,0-2.37-32c-1.86-11.07-4.6-21.88-9.52-32-10.77-22.26-27.85-37.08-51.8-43.67a98.48,98.48,0,0,0-33.27-3,81.86,81.86,0,0,0-30.45,7.86c-16.56,8.08-28.63,20.74-37,37-8.23,16-12.05,33.31-13.38,51.13a175.78,175.78,0,0,0,1.77,42.55c2.21,13,6,25.51,12.4,37.1,11.08,20,27.49,33.39,49.49,39.71a93.3,93.3,0,0,0,40.83,2.44c24.24-3.86,43.07-16.19,56.51-36.71,6.21-9.47,9.89-20,12.59-30.92A156.38,156.38,0,0,0,501.33,695.61Z" transform="translate(314.82 -98.04)"/><path class="cls-3" d="M1932.72,623.75a23.07,23.07,0,0,1-2.84.88q-30.14,5.52-60.26,11c-1.93-2.55-2.84-5.27-4-7.88a73.26,73.26,0,0,0-15.25-23.07A62.56,62.56,0,0,0,1824,588.7c-18.81-5.69-37.89-6.39-56.7-.54-27,8.37-45.37,26.11-54.78,52.82a167.29,167.29,0,0,0-2,100c6.78,23,20.54,40.61,41.67,52.17,14.22,7.79,29.55,11,45.7,10.54A76.71,76.71,0,0,0,1835.23,793c7.29-4.31,14.34-9,21.49-13.57a8.3,8.3,0,0,0,4.06-7.63c-.08-10.08,0-20.16,0-30.24a10,10,0,0,0-1.18-5,5.82,5.82,0,0,0-1.51-.46q-14.38-.11-28.76-.17c-13.58,0-27.17.26-41-.44a17.58,17.58,0,0,1-.43-2.73q0-22.8,0-45.59a26.75,26.75,0,0,1,.23-2.69c.29-.2.41-.3.55-.38a1,1,0,0,1,.42-.2c1.76,0,3.52-.11,5.27-.1q64.31,0,128.59.09a4.27,4.27,0,0,1,1.13.42,28.21,28.21,0,0,1,1,7.81q0,55.68,0,111.34a12.91,12.91,0,0,1-5.38,11.12c-24.56,18.71-51.22,33.1-81.51,40.18a175.4,175.4,0,0,1-57.14,3.73,188.78,188.78,0,0,1-55.16-13.64c-38.35-16-64.14-43.93-77.87-83.06a189,189,0,0,1-9.77-44.86,241.91,241.91,0,0,1-1.47-25.35c.33-30,6.77-58.64,20.62-85.43,18.9-36.55,48.56-59.47,88.37-69.33a219,219,0,0,1,57.45-6.81c26.27.55,51.3,6.34,74.81,18.23,24.41,12.34,41,31.62,50.24,57.32a80.1,80.1,0,0,1,4.3,15.69C1932.7,622,1932.67,622.79,1932.72,623.75Z" transform="translate(314.82 -98.04)"/><path class="cls-1" d="M1006.33,280.84c1.75-1.85,3.38-2,4.85-2.41q16.81-4.81,33.64-9.6,43.56-12.4,87.11-24.84a31.67,31.67,0,0,1,17.92.07q61.08,17.38,122.2,34.61,91.32,25.82,182.64,51.61c3,.86,6.24,1.4,9.33,3.16.11,1.63.31,3.35.31,5.07q.14,65.26.21,130.54c0,.8-.08,1.59-.14,2.65a21.92,21.92,0,0,1-2.66.52c-1.11.09-2.23,0-3.35,0H1299.07c-1.88,0-3.77-.08-5.29-.12a5.61,5.61,0,0,1-.67-.68,1.19,1.19,0,0,1-.1-.46,14,14,0,0,1-.11-1.43q0-52.8-.08-105.59a4.05,4.05,0,0,0-.29-.86c-1-.37-2.34-.9-3.67-1.29L1191.63,334q-90.56-25.86-181.1-51.74C1009.32,282,1008.16,281.48,1006.33,280.84Z" transform="translate(314.82 -98.04)"/><path class="cls-1" d="M1131.15,536.17c.64,4.05.85,41.08.32,50.92a20.16,20.16,0,0,1-2.59.49c-1.43.08-2.87,0-4.31,0H960.29c-.19,1.13-.42,2-.48,2.91-.08,1.12,0,2.24,0,3.36V793.5c0,1.89.08,3.78.13,6,1.13.11,2,.27,2.94.28,3.52,0,7,0,10.56,0h163.32c1.5,1.75,1.39,3.57,1.57,5.29a242.42,242.42,0,0,1,1,28.26c-.06,6.23.07,12.48-1.15,18.93a21.68,21.68,0,0,1-2.55.51c-1.11.09-2.23,0-3.35,0H901c-1.6,0-3.21,0-4.8-.09a2,2,0,0,1-1.88-1.87c-.12-1.43-.08-2.88-.09-4.32,0-26.87,0-53.74,0-80.62q-.15-74.37-.39-148.74-.1-37.44-.19-74.86c0-1.72.1-3.45.17-5.39,1.52-.16,2.75-.36,4-.41,6.39-.25,12.77-.59,19.16-.67,15.83-.2,31.67-.3,47.5-.39q41.73-.23,83.46-.4,13.2,0,26.39.11c16.94.18,33.89.43,50.83.65A53.36,53.36,0,0,1,1131.15,536.17Z" transform="translate(314.82 -98.04)"/><path class="cls-1" d="M224.92,535.1c-1.49,1.76-2.25,2.77-3.12,3.67Q205,556.21,188.14,573.63,162.76,599.82,137.35,626q-24.72,25.5-49.42,51-28.14,29.19-56.17,58.48c-4.87,5.08-9.68,10.23-14.66,15.2a18.4,18.4,0,0,0-5.75,14.2c.17,5.75.13,11.51.13,17.27q0,32.4-.11,64.79c0,1.41-.12,2.82-.2,4.52-2.71.33-5.21.82-7.73.92-13.74.55-27.48,1.08-41.23.79-4.78-.1-9.55-.48-14.51-.74a22.8,22.8,0,0,1-.48-2.91q-.21-6.24-.31-12.47c-.23-14.55-.51-29.1-.62-43.65-.14-17.76-.14-35.52-.18-53.27q-.12-59.26-.18-118.54c0-24.47.21-48.95.35-73.42,0-3,.1-6.08.22-9.11a28.09,28.09,0,0,1,.46-3,15.57,15.57,0,0,1,2.3-.36q29.75,0,59.5,0c.77,0,1.53.11,2.59.18.07,2,.18,3.66.18,5.38q0,63.11,0,126.22c0,1.71-.31,3.47.27,5,1.38.79,2,0,2.65-.73,5.69-6.06,11.39-12.11,17-18.21L134.3,542.64c.76-.82,1.57-1.59,2.33-2.42a15.62,15.62,0,0,1,12-5.19c6.23,0,12.46.16,18.7.27,1.6,0,3.19.1,4.79.09l47-.29Z" transform="translate(314.82 -98.04)"/><path class="cls-1" d="M1288.39,720.49c-.6-4.42-.6-45.88,0-50.18,1.1-.84,2.42-.5,3.64-.49q16.08,0,32.14.18a193.57,193.57,0,0,0,21.54-.89,114.36,114.36,0,0,0,17.89-3.34c12.2-3.3,20.27-11.07,24.43-22.94a42.08,42.08,0,0,0-.87-30.9c-5.18-12.57-14.89-19.64-27.91-22.46a94.17,94.17,0,0,0-19.54-1.84c-14.39,0-28.78.06-43.17,0-2.68,0-5.36-.21-7.64-.3-.49-.49-.63-.58-.7-.72a1,1,0,0,1-.1-.46q-.07-23.75-.11-47.49c0-.79.09-1.58.13-2.25,1.11-1.2,2.45-1,3.69-1q6,0,12,0c14.39.16,28.78.28,43.17.52,8.78.16,17.58.29,26.35.84a115.72,115.72,0,0,1,34.55,7.38c20.22,7.76,34.33,21.76,42.36,41.85a106.52,106.52,0,0,1,7,30.71,97.75,97.75,0,0,1-6.73,45.56c-9.23,22.91-26.13,37.42-49.59,44.4-6.72,2-13.66,3.25-20.49,4.87-.6.14-1.17.39-1.8.6,1.73,2.66,1.71,2.69,5.6,4.93a89.85,89.85,0,0,1,21.17,17.12,126.07,126.07,0,0,1,13,16.58c7.59,11.65,15.15,23.33,22.51,35.13,11.75,18.85,23.35,37.8,35,56.74a63.37,63.37,0,0,1,5.21,9.42c-1.87.84-3.6.65-5.28.65-9.28,0-18.55,0-27.83,0q-17,.11-34,.39c-9.48.15-10.77-.53-16-8.59q-29.32-45.29-58.7-90.54c-2.88-4.42-5.94-8.73-9.13-12.92-8.55-11.26-19.79-17.88-34-19.33C1293.66,721.53,1291.16,721,1288.39,720.49Z" transform="translate(314.82 -98.04)"/><path class="cls-4" d="M1584.22,852.2h-64c-.17-1-.41-1.88-.48-2.8-.09-1.11,0-2.24,0-3.36V541.88c0-1.89.08-3.79.11-5.35a5.37,5.37,0,0,1,.61-.65.93.93,0,0,1,.45-.15q30.21-.08,60.42-.12c.61,0,1.23.13,2.13.22.16,1.63.41,3.18.44,4.73.24,11.82.57,23.65.63,35.47q.27,56.85.38,113.7c.09,26.06.32,52.12.26,78.18-.06,26.7-.4,53.4-.63,80.1C1584.51,849.25,1584.34,850.49,1584.22,852.2Z" transform="translate(314.82 -98.04)"/><path class="cls-5" d="M1259.5,852.13c-4.42.51-57.08.66-64.11.23a20.67,20.67,0,0,1-.47-2.6c-.09-1.11,0-2.24,0-3.36V536.27a13.46,13.46,0,0,1,2.44-.49q30,0,60,0a14.23,14.23,0,0,1,1.71.22,21.19,21.19,0,0,1,.47,2.59c.08,1.28,0,2.56,0,3.84v309.7Z" transform="translate(314.82 -98.04)"/><path class="cls-3" d="M695.88,615.66c4.48-.67,60.27-.68,64.16-.09,1,1.25.75,2.74.78,4.16.19,10.55.45,21.1.52,31.65q.42,62.13.69,124.25c.07,20.47-.15,40.94-.29,61.41,0,4-.28,8-.48,12a21.82,21.82,0,0,1-.46,2.57c-2.44.28-4.79.66-7.15.8-14.06.81-28.12.94-42.19.75-4.94-.07-9.88-.49-15-.76a28.11,28.11,0,0,1-.51-2.81c-.09-1.11,0-2.24,0-3.36V615.66Z" transform="translate(314.82 -98.04)"/><path class="cls-6" d="M856.26,535.61c1,5.3,1.25,44.89.41,50.55-.83.11-1.74.3-2.66.34-2.23.09-4.47.11-6.71.16-12.94.26-25.88.72-38.82.75q-81.29.18-162.58.12c-11,0-22.06-.14-33.08-.31-3.83-.06-7.65-.38-11.68-.59a10.82,10.82,0,0,1-.52-2.27q0-23.26,0-46.53a15.29,15.29,0,0,1,.27-2,16.52,16.52,0,0,1,2-.24Z" transform="translate(314.82 -98.04)"/><path class="cls-1" d="M123.11,679.16c5.64,8,107.1,169,108.77,172.59-.36,1-1.28.75-2,.82-1.27.13-2.55.17-3.83.19-1.92,0-3.84,0-5.76,0-20.46.13-40.93.1-61.39.49-6.57.12-10.6-2.35-13.82-8.06-21.14-37.45-42.54-74.75-63.84-112.1-.95-1.67-1.83-3.37-2.72-5.07a3.89,3.89,0,0,1,.53-4.47,20.79,20.79,0,0,1,1.56-1.82q20.65-21.07,41.34-42.12C122.15,679.42,122.52,679.39,123.11,679.16Z" transform="translate(314.82 -98.04)"/><path class="cls-7" d="M987.61,661.69h132.6a26.18,26.18,0,0,1,.41,2.9c.51,18,.23,43.83-.5,47.82a1.53,1.53,0,0,1-.33.34,1,1,0,0,1-.45.13c-1.44,0-2.87.13-4.31.13q-63,0-126.07-.09c-.29,0-.57-.22-1.17-.47-.62-5.38-.19-10.93-.26-16.46-.08-5.76,0-11.51,0-17.27C987.53,673.17,987.42,667.6,987.61,661.69Z" transform="translate(314.82 -98.04)"/></svg>